<svg xmlns="http://www.w3.org/2000/svg" viewBox="0 0 65.5 65.52"><defs><style>.cls-1{fill:#fff;}</style></defs><title>Asset 1</title><g id="Layer_2" data-name="Layer 2"><g id="Layer_1-2" data-name="Layer 1"><path class="cls-1" d="M65.5,62c0-9.77-10.84-13.33-15.18-14.22-3.41-.69-7.6-4.11-9.25-5.56,6.5-5,8.43-15.75,8.43-23.17C49.5,9.13,45.59.26,33,0h-.07L32.5,0V0C19.91.27,16,9.15,16,19c0,7.41,1.93,18.12,8.43,23.16-1.65,1.45-5.85,4.87-9.25,5.57C10.84,48.64,0,52.19,0,62a156.47,156.47,0,0,0,33,3.56v0A157.18,157.18,0,0,0,65.5,62Z"/></g></g></svg>