<svg xmlns="http://www.w3.org/2000/svg" viewBox="0 0 61.28 42.88"><defs><style>.cls-1{fill:#fff;}</style></defs><title>Asset 4</title><g id="Layer_2" data-name="Layer 2"><g id="Layer_1-2" data-name="Layer 1"><path class="cls-1" d="M59.8,0H1.48A1.39,1.39,0,0,0,0,1.29v40.3a1.39,1.39,0,0,0,1.48,1.29H59.8a1.39,1.39,0,0,0,1.48-1.29V1.29A1.39,1.39,0,0,0,59.8,0ZM38.52,21.45,56.77,5.6V37.29Zm-34,15.84V5.51L22.82,21.4ZM6.9,3.46H54.47L30.68,24.09Zm-1,36-.16,0L24.63,23l4.65,4,.44.38a1.51,1.51,0,0,0,1.94,0L32.1,27l4.61-4L55.58,39.4l-.16,0Z"/></g></g></svg>