<svg xmlns="http://www.w3.org/2000/svg" viewBox="0 0 65 58"><defs><style>.cls-1{fill:#fff;}</style></defs><title>Asset 7</title><g id="Layer_2" data-name="Layer 2"><g id="Layer_1-2" data-name="Layer 1"><path class="cls-1" d="M63,27h0V2.8A2.8,2.8,0,0,0,60.2,0H2.8A2.8,2.8,0,0,0,0,2.8V40.2A2.8,2.8,0,0,0,2.8,43H28.5c-1.07,2-3.89,6.52-8.45,8.63,0,0-1.37,1.37,11,1.37s11-1.37,11-1.37C37.39,49.52,34.57,45,33.5,43H48V55.66A2.19,2.19,0,0,0,50,58H63a2.19,2.19,0,0,0,2-2.34V29.34A2.19,2.19,0,0,0,63,27ZM48,29.34V38H7.53a2.56,2.56,0,0,1-2.6-2.5V7.5A2.56,2.56,0,0,1,7.53,5H55.4A2.55,2.55,0,0,1,58,7.5V27H50A2.19,2.19,0,0,0,48,29.34Zm8.61,26.88A1.36,1.36,0,1,1,58,54.86,1.38,1.38,0,0,1,56.61,56.22ZM62,50.78c0,.95-.55,1.72-1.23,1.72H52.23c-.68,0-1.23-.77-1.23-1.72V31.72c0-.95.55-1.72,1.23-1.72h8.54c.68,0,1.23.77,1.23,1.72Z"/></g></g></svg>