<svg xmlns="http://www.w3.org/2000/svg" viewBox="0 0 65 58"><defs><style>.cls-1{fill:#fff;}</style></defs><title>Asset 2</title><g id="Layer_2" data-name="Layer 2"><g id="Layer_1-2" data-name="Layer 1"><path class="cls-1" d="M63,27h0V2.8A2.8,2.8,0,0,0,60.2,0H2.8A2.8,2.8,0,0,0,0,2.8V40.2A2.8,2.8,0,0,0,2.8,43H28.5c-1.07,2-3.89,6.52-8.45,8.63,0,0-1.37,1.37,11,1.37s11-1.37,11-1.37C37.39,49.52,34.57,45,33.5,43H48V55.66A2.19,2.19,0,0,0,50,58H63a2.19,2.19,0,0,0,2-2.34V29.34A2.19,2.19,0,0,0,63,27ZM48,29.34V38H7.53a2.56,2.56,0,0,1-2.6-2.5V7.5A2.56,2.56,0,0,1,7.53,5H55.4A2.55,2.55,0,0,1,58,7.5V27H50A2.19,2.19,0,0,0,48,29.34ZM56.5,57.5A1.52,1.52,0,1,1,57.78,56,1.41,1.41,0,0,1,56.5,57.5ZM63,51.63a1.7,1.7,0,0,1-1.46,1.87H51.46A1.7,1.7,0,0,1,50,51.63V30.87A1.7,1.7,0,0,1,51.46,29H61.54A1.7,1.7,0,0,1,63,30.87Z"/></g></g></svg>