<svg xmlns="http://www.w3.org/2000/svg" viewBox="0 0 49.42 61.28"><defs><style>.cls-1{fill:#fff;}</style></defs><title>Asset 3</title><g id="Layer_2" data-name="Layer 2"><g id="Layer_1-2" data-name="Layer 1"><path class="cls-1" d="M47.94,0H1.48A1.48,1.48,0,0,0,0,1.48V59.8a1.48,1.48,0,0,0,1.48,1.48H47.94a1.48,1.48,0,0,0,1.48-1.48V1.48A1.48,1.48,0,0,0,47.94,0Zm-2.5,55.42a1.35,1.35,0,0,1-1.36,1.35H5.33A1.35,1.35,0,0,1,4,55.42V5.86A1.35,1.35,0,0,1,5.33,4.51H44.08a1.35,1.35,0,0,1,1.36,1.35Z"/><path class="cls-1" d="M26.42,9h-18V27h18ZM23.65,24.23H11.19V11.77H23.65Z"/><rect class="cls-1" x="13.13" y="32.98" width="27.03" height="2.33" rx="0.95"/><rect class="cls-1" x="8.27" y="32.98" width="2.33" height="2.33" rx="0.95"/><rect class="cls-1" x="13.13" y="40.33" width="27.03" height="2.33" rx="0.95"/><rect class="cls-1" x="8.27" y="40.33" width="2.33" height="2.33" rx="0.95"/><rect class="cls-1" x="13.13" y="47.67" width="27.03" height="2.33" rx="0.95"/><rect class="cls-1" x="8.27" y="47.67" width="2.33" height="2.33" rx="0.95"/></g></g></svg>